<?xml version="1.0" encoding="UTF-8"?>
<svg version="1.1" xmlns="http://www.w3.org/2000/svg" width="538" height="491">
<path d="M0 0 C2.93844786 2.50581322 5.78510319 5.10235714 8.61279297 7.73193359 C9.20866211 8.27865723 9.80453125 8.82538086 10.41845703 9.38867188 C36.46578932 33.49393957 49.83303944 68.30578684 51.52294922 103.50537109 C51.56742187 105.10251953 51.56742187 105.10251953 51.61279297 106.73193359 C51.65275391 107.79669922 51.69271484 108.86146484 51.73388672 109.95849609 C52.54130236 150.51925842 39.38760135 187.60679347 12.10107422 217.48193359 C5.91279908 223.88129891 -0.97765998 229.79223556 -8.38720703 234.73193359 C-6.65152426 239.70955257 -3.96902297 244.05048182 -1.26220703 248.54443359 C-0.49215332 249.83341553 -0.49215332 249.83341553 0.29345703 251.1484375 C3.38257911 256.25414577 6.6017241 261.24320493 9.96435547 266.17333984 C10.69380371 267.24414795 11.42325195 268.31495605 12.17480469 269.41821289 C13.61409447 271.51579869 15.06594969 273.60482713 16.53125 275.68432617 C17.19237793 276.6462085 17.85350586 277.60809082 18.53466797 278.59912109 C19.42557129 279.86925049 19.42557129 279.86925049 20.33447266 281.16503906 C21.85267352 284.21361886 21.85423743 286.36948237 21.61279297 289.73193359 C16.32976319 289.95000704 11.04651777 290.14665345 5.76196289 290.32397461 C3.96650175 290.38718027 2.17123225 290.45611128 0.3762207 290.53100586 C-2.2125916 290.63800531 -4.80140739 290.72400427 -7.39111328 290.80615234 C-8.1861879 290.84350998 -8.98126251 290.88086761 -9.8004303 290.9193573 C-15.12656638 291.06120369 -18.70281628 290.34441747 -23.38720703 287.73193359 C-25.140625 285.86938477 -25.140625 285.86938477 -26.37939453 283.77490234 C-26.85280273 282.99816162 -27.32621094 282.2214209 -27.81396484 281.42114258 C-28.29188477 280.59557861 -28.76980469 279.77001465 -29.26220703 278.91943359 C-30.2952893 277.20542645 -31.32915124 275.491889 -32.36376953 273.77880859 C-32.8694043 272.92867188 -33.37503906 272.07853516 -33.89599609 271.20263672 C-36.41244647 267.0332723 -39.10427084 262.97916503 -41.796875 258.92211914 C-44.38720703 254.94934739 -44.38720703 254.94934739 -44.38720703 252.73193359 C-45.03157715 252.84786865 -45.67594727 252.96380371 -46.33984375 253.08325195 C-49.31327507 253.61591409 -52.28771974 254.14270147 -55.26220703 254.66943359 C-56.27541016 254.85183594 -57.28861328 255.03423828 -58.33251953 255.22216797 C-91.04069596 260.9880324 -122.35837733 257.51533035 -152.46142578 243.59912109 C-153.13866699 243.2868457 -153.8159082 242.97457031 -154.51367188 242.65283203 C-156.38720703 241.73193359 -156.38720703 241.73193359 -159.34423828 239.92724609 C-166.80476385 236.99666737 -173.94255495 240.5244383 -180.88720703 243.48193359 C-223.31024187 260.46635973 -273.41649195 254.7090606 -317.38720703 253.73193359 C-317.38720703 161.99193359 -317.38720703 70.25193359 -317.38720703 -24.26806641 C-211.49888736 -24.26806641 -211.49888736 -24.26806641 -193.19970703 -19.51806641 C-192.18086426 -19.2607373 -191.16202148 -19.0034082 -190.11230469 -18.73828125 C-183.11754408 -16.90317085 -176.66456518 -14.58125938 -170.19189453 -11.36962891 C-166.24700616 -9.82024378 -163.39352816 -9.4054572 -159.40771484 -11.11914062 C-157.09492483 -12.32143674 -154.83553849 -13.59579241 -152.57470703 -14.89306641 C-105.33665316 -40.81610963 -41.65567343 -34.3148565 0 0 Z M-128.38720703 20.73193359 C-126.97914248 24.69015951 -125.04877963 28.18411822 -122.96020508 31.80834961 C-114.95476891 45.71703785 -109.2393372 60.15150548 -105.38720703 75.73193359 C-105.2205957 76.3998291 -105.05398438 77.06772461 -104.88232422 77.75585938 C-99.26337344 101.71492591 -100.52997991 129.98208116 -106.38720703 153.73193359 C-106.70866699 155.08544922 -106.70866699 155.08544922 -107.03662109 156.46630859 C-110.82090406 172.06614753 -117.03667932 191.95246948 -129.08642578 203.33740234 C-130.72825667 204.77972567 -130.72825667 204.77972567 -130.38720703 207.73193359 C-127.57658897 208.69609383 -124.76391105 209.653342 -121.94970703 210.60693359 C-120.77504883 211.01105469 -120.77504883 211.01105469 -119.57666016 211.42333984 C-103.05835719 216.99741739 -86.65215495 217.6351562 -69.38720703 215.73193359 C-70.94576756 209.97365905 -73.85087808 205.32469787 -76.94970703 200.29443359 C-77.95118028 198.65000658 -78.95247706 197.00547207 -79.95361328 195.36083984 C-81.08669922 193.50330078 -82.21978516 191.64576172 -83.38720703 189.73193359 C-86.35720703 184.78193359 -89.32720703 179.83193359 -92.38720703 174.73193359 C-77.53720703 174.73193359 -62.68720703 174.73193359 -47.38720703 174.73193359 C-46.72720703 176.71193359 -46.06720703 178.69193359 -45.38720703 180.73193359 C-43.91663547 183.77996701 -42.21266624 186.68194546 -40.51220703 189.60693359 C-39.86058594 190.78255859 -39.86058594 190.78255859 -39.19580078 191.98193359 C-38.76654297 192.72185547 -38.33728516 193.46177734 -37.89501953 194.22412109 C-37.3171167 195.23514893 -37.3171167 195.23514893 -36.72753906 196.26660156 C-36.28522949 196.75016113 -35.84291992 197.2337207 -35.38720703 197.73193359 C-30.68083793 197.73193359 -29.76348588 196.86664675 -26.19970703 193.98193359 C-25.31927734 193.28583984 -24.43884766 192.58974609 -23.53173828 191.87255859 C-21.37548792 189.72023583 -20.72839746 188.70229731 -20.38720703 185.73193359 C-19.39720703 185.73193359 -18.40720703 185.73193359 -17.38720703 185.73193359 C1.92450944 160.83661214 7.32682163 127.24128996 4.14794922 96.63037109 C1.45380514 75.40326135 -6.9631031 55.60901502 -21.38720703 39.73193359 C-21.92603516 39.11189453 -22.46486328 38.49185547 -23.02001953 37.85302734 C-38.93585994 20.61753182 -62.05234481 12.81886639 -85.00048828 11.52880859 C-100.33886943 11.33444685 -115.07780553 12.52314105 -128.38720703 20.73193359 Z M-274.38720703 14.73193359 C-274.38720703 80.73193359 -274.38720703 146.73193359 -274.38720703 214.73193359 C-246.50125027 214.73193359 -225.14154777 213.663687 -199.38720703 206.73193359 C-199.96067484 203.02827032 -200.96126239 200.37552929 -202.89892578 197.17724609 C-203.40673584 196.32308105 -203.9145459 195.46891602 -204.43774414 194.58886719 C-204.97794189 193.6873291 -205.51813965 192.78579102 -206.07470703 191.85693359 C-220.29085716 167.46785461 -225.83464189 142.06681338 -225.82470703 113.98193359 C-225.8254422 113.07763611 -225.82617737 112.17333862 -225.82693481 111.24163818 C-225.79494218 96.22764228 -224.68121866 82.20966112 -220.38720703 67.73193359 C-220.14083496 66.88630859 -219.89446289 66.04068359 -219.640625 65.16943359 C-215.38519823 51.12186103 -208.35056643 38.37965612 -200.05517578 26.31396484 C-198.20633409 23.96426115 -198.20633409 23.96426115 -198.38720703 21.73193359 C-224.16692625 14.56510207 -246.93020619 14.73193359 -274.38720703 14.73193359 Z M-164.38720703 49.73193359 C-181.12511375 82.28981932 -187.68757479 115.19447087 -176.70996094 150.93701172 C-173.8359444 159.66389471 -170.10553965 167.83458254 -165.38720703 175.73193359 C-162.10118781 174.69270257 -161.29111342 173.57871873 -159.42236328 170.59912109 C-158.74820763 169.27672591 -158.09162015 167.94527675 -157.44970703 166.60693359 C-157.10343262 165.89553223 -156.7571582 165.18413086 -156.40039062 164.45117188 C-148.41275213 147.54208153 -145.94619157 130.28811819 -145.94970703 111.66943359 C-145.94830719 110.95292633 -145.94690735 110.23641907 -145.94546509 109.49819946 C-145.97531475 90.81464958 -149.15427756 65.27002291 -162.96289062 51.11694336 C-163.43291504 50.65989014 -163.90293945 50.20283691 -164.38720703 49.73193359 Z " fill="#010D34" transform="translate(407.38720703125,86.26806640625)"/>
<path d="M0 0 C0.33 -0.33 0.66 -0.66 1 -1 C2.66617115 -1.04063832 4.33388095 -1.042721 6 -1 C8.17135329 3.34270658 7.2683495 9.1334596 7.29516602 13.95605469 C7.30663696 15.39137672 7.32701097 16.82665774 7.35668945 18.26171875 C7.66807462 33.31953986 7.66807462 33.31953986 3 40 C-1.57345215 43.44275963 -6.11380737 44.64942342 -11.81640625 44.40234375 C-15.70429116 43.6859714 -19.18186249 41.81813751 -22 39 C-22.04063832 37.33382885 -22.042721 35.66611905 -22 34 C-18.39400624 33.81970031 -15.43061548 34.09581536 -12 35.125 C-8.09350625 36.16523493 -5.64413118 35.99559564 -2 34 C-0.56076801 31.49004504 -0.56076801 31.49004504 0 29 C-1.03125 29.495 -2.0625 29.99 -3.125 30.5 C-6.59879213 31.96080997 -9.19609703 32.56653874 -13 32 C-18.26523465 29.15677329 -22.08299571 25.75101288 -24 20 C-24.62328873 13.9229349 -24.05958171 8.36640918 -21 3 C-15.07681676 -2.92318324 -7.56641082 -3.66856282 0 0 Z M-17 9 C-18.20190901 12.60572704 -18.32670315 15.2102435 -18 19 C-16.20437595 21.75329021 -14.94745078 23.52627461 -12 25 C-7.81855989 25.39447548 -5.69053952 25.45035186 -2.125 23.125 C0.75716343 20.24283657 1.18710511 18.59803798 1.3125 14.625 C1.28520881 11.22997565 1.22625466 10.30167288 -0.875 7.5 C-6.84836786 3.28350504 -11.46094254 4.49146486 -17 9 Z " fill="#010E33" transform="translate(158,406)"/>
<path d="M0 0 C6.18448979 4.41749271 9.11476157 9.51258764 10.625 16.875 C11.16177172 22.51110304 10.76920831 26.64849225 8.625 31.875 C8.4510886 34.88264423 8.50699371 37.8658395 8.625 40.875 C7.75488281 40.84019531 7.75488281 40.84019531 6.8671875 40.8046875 C3.12435874 40.71821951 0.18810338 40.67556755 -3.375 41.9375 C-8.79059734 43.62987417 -13.55754316 42.80154662 -18.5625 40.25 C-25.38555997 34.48830492 -28.84021294 29.65070026 -29.6875 20.5 C-29.04951923 13.09942312 -27.47673966 8.46666255 -21.875 3.375 C-15.45705794 -2.01607133 -7.92148837 -2.64049612 0 0 Z M-14.125 6.375 C-15.73375 7.1175 -15.73375 7.1175 -17.375 7.875 C-17.375 8.535 -17.375 9.195 -17.375 9.875 C-18.035 9.875 -18.695 9.875 -19.375 9.875 C-22.54497607 14.86805244 -24.0654759 18.77113564 -23.05078125 24.6953125 C-21.61541029 29.32500611 -19.14786764 32.69308824 -15.125 35.375 C-11.10666635 36.10560612 -7.38092194 35.52083491 -3.375 34.875 C-4.67655006 30.79535719 -4.67655006 30.79535719 -6.375 26.875 C-3.405 27.535 -0.435 28.195 2.625 28.875 C4.97061793 24.18376413 5.44320524 21.02041438 4.625 15.875 C2.8090034 11.3700814 0.63267563 8.53307388 -3.4375 5.875 C-7.4895411 4.49558175 -10.31686329 4.61739844 -14.125 6.375 Z " fill="#010D34" transform="translate(274.375,395.125)"/>
<path d="M0 0 C5.506875 -0.12375 5.506875 -0.12375 11.125 -0.25 C12.2711377 -0.28641602 13.41727539 -0.32283203 14.59814453 -0.36035156 C20.75667961 -0.4273039 24.33250936 -0.1353663 29 4 C33.80197534 8.80197534 34.71768464 13.89453101 35.3125 20.4375 C34.6899 27.53514 32.60885491 33.40702476 27.64453125 38.625 C21.85245364 43.46778223 13.10762707 42.37500364 6 42 C4.02 41.67 2.04 41.34 0 41 C0 27.47 0 13.94 0 0 Z M5 5 C5 15.23 5 25.46 5 36 C15.07481739 36.46108699 15.07481739 36.46108699 24 33 C27.7073753 28.24695475 29.62795028 23.10158354 29 17 C27.14256264 12.47446405 24.35740382 8.38954403 20 6 C14.90858969 4.55535135 14.90858969 4.55535135 5 5 Z " fill="#010D33" transform="translate(85,395)"/>
<path d="M0 0 C3.73627495 3.36264746 5.78605755 7.5622063 6.22705078 12.5871582 C6.21657715 13.48265381 6.20610352 14.37814941 6.1953125 15.30078125 C6.18886719 16.27724609 6.18242187 17.25371094 6.17578125 18.25976562 C6.15902344 19.26716797 6.14226562 20.27457031 6.125 21.3125 C6.11597656 22.33923828 6.10695312 23.36597656 6.09765625 24.42382812 C6.07416201 26.94945899 6.04131131 29.4746081 6 32 C1.25 32.125 1.25 32.125 -1 31 C-1.886875 31.309375 -2.77375 31.61875 -3.6875 31.9375 C-8.47284091 33.47242067 -12.22770475 33.86645545 -16.8125 31.625 C-20.12694404 29.16284157 -21.32375716 27.80484033 -21.9375 23.75 C-22.25874844 20.25008279 -22.06806863 18.34680343 -19.875 15.5625 C-14.18163478 10.48797882 -9.33198637 10.7437364 -2 11 C-2.66 9.35 -3.32 7.7 -4 6 C-4.74765625 6.144375 -5.4953125 6.28875 -6.265625 6.4375 C-7.74289063 6.7159375 -7.74289063 6.7159375 -9.25 7 C-10.71179688 7.2784375 -10.71179688 7.2784375 -12.203125 7.5625 C-15 8 -15 8 -19 8 C-19 6.02 -19 4.04 -19 2 C-12.60712134 -0.73318725 -6.82085102 -2.01553075 0 0 Z M-15 20 C-14.34414811 23.60992379 -14.34414811 23.60992379 -13 27 C-11.56138706 26.91253716 -10.12402492 26.80434652 -8.6875 26.6875 C-7.88699219 26.62949219 -7.08648437 26.57148438 -6.26171875 26.51171875 C-3.59399886 25.90814137 -2.62853361 25.17137814 -1 23 C-0.74930087 20.37429296 -0.74930087 20.37429296 -1 18 C-8.43939562 16.6121879 -8.43939562 16.6121879 -15 20 Z " fill="#010D33" transform="translate(221,405)"/>
<path d="M0 0 C3.37184366 2.05707626 6.21937586 4.43875173 8 8 C8.09825199 10.84352821 8.13900483 13.65702042 8.125 16.5 C8.13080078 17.67755859 8.13080078 17.67755859 8.13671875 18.87890625 C8.12665394 24.74669213 8.12665394 24.74669213 7 27 C7.66 27 8.32 27 9 27 C9 28.98 9 30.96 9 33 C3.25 33.125 3.25 33.125 1 32 C0.29875 32.309375 -0.4025 32.61875 -1.125 32.9375 C-4.80097878 34.2960139 -8.15438742 34.63092081 -12 34 C-17.5 31 -17.5 31 -19 28 C-19.55512815 23.36786507 -19.6364242 20.01827873 -17.125 16 C-13.41807364 12.51112813 -10.88422044 12.89196163 -5.875 12.9375 C-4.59367187 12.94652344 -3.31234375 12.95554687 -1.9921875 12.96484375 C-1.00476563 12.97644531 -0.01734375 12.98804688 1 13 C0.67 11.35 0.34 9.7 0 8 C-5.45769811 7.88861841 -10.61509359 8.08342019 -16 9 C-16 7.02 -16 5.04 -16 3 C-10.74123197 0.31467164 -5.92404086 -1.32456547 0 0 Z M-13 21 C-12.42547254 24.93075644 -12.42547254 24.93075644 -10 28 C-5.61362887 27.85850416 -3.06485085 27.72721522 0.5625 25.25 C2.28806776 23.05534415 2.28806776 23.05534415 1.75 20.25 C1.5025 19.5075 1.255 18.765 1 18 C-4.50366792 17.67625483 -8.43672206 17.46713966 -13 21 Z " fill="#010D33" transform="translate(306,404)"/>
<path d="M0 0 C2.65457416 2.1606999 4.46771922 3.72129126 4.99047852 7.20874023 C5.01553467 7.96356689 5.04059082 8.71839355 5.06640625 9.49609375 C5.11764648 10.74036133 5.11764648 10.74036133 5.16992188 12.00976562 C5.19634766 12.87279297 5.22277344 13.73582031 5.25 14.625 C5.31019252 16.33216234 5.37387229 18.03920607 5.44140625 19.74609375 C5.46533447 20.50204834 5.4892627 21.25800293 5.51391602 22.03686523 C5.62074609 24.20114516 5.62074609 24.20114516 6.26538086 26.27758789 C6.6875 28.1875 6.6875 28.1875 5.6875 31.1875 C2.64363276 31.26976668 0.61574652 31.16358217 -2.3125 30.1875 C-3.034375 30.496875 -3.75625 30.80625 -4.5 31.125 C-8.15426078 32.50549852 -11.49046145 32.94145682 -15.3125 32.1875 C-18.33221525 30.43684612 -20.72816191 28.35617619 -22.3125 25.1875 C-23.01198799 18.07603879 -23.01198799 18.07603879 -20 14.25 C-16.09453256 11.25278081 -12.92314127 10.98615042 -8.125 10.625 C-7.03832031 10.54121094 -5.95164062 10.45742188 -4.83203125 10.37109375 C-4.00058594 10.31050781 -3.16914063 10.24992187 -2.3125 10.1875 C-2.9725 8.5375 -3.6325 6.8875 -4.3125 5.1875 C-5.06015625 5.331875 -5.8078125 5.47625 -6.578125 5.625 C-8.05539062 5.9034375 -8.05539062 5.9034375 -9.5625 6.1875 C-11.02429688 6.4659375 -11.02429688 6.4659375 -12.515625 6.75 C-15.3125 7.1875 -15.3125 7.1875 -19.3125 7.1875 C-19.3125 5.2075 -19.3125 3.2275 -19.3125 1.1875 C-6.64744676 -3.63728219 -6.64744676 -3.63728219 0 0 Z M-15.171875 18.0390625 C-16.63953608 20.20774699 -16.63953608 20.20774699 -15.5625 22.875 C-14.5102169 25.08505147 -14.5102169 25.08505147 -13.3125 26.1875 C-8.9493944 26.23175056 -5.34901208 25.92064269 -1.75 23.375 C0.05361859 21.06662117 0.05361859 21.06662117 -0.3125 17.1875 C-3.19745206 16.22584931 -5.29843354 15.96021914 -8.3125 15.875 C-9.611875 15.81892578 -9.611875 15.81892578 -10.9375 15.76171875 C-13.45801929 15.98091465 -13.45801929 15.98091465 -15.171875 18.0390625 Z " fill="#010D33" transform="translate(358.3125,405.8125)"/>
<path d="M0 0 C2.5 1.75 2.5 1.75 3.4375 3.8125 C3.5 5.75 3.5 5.75 2.5 7.75 C1.58476562 7.66621094 0.66953125 7.58242188 -0.2734375 7.49609375 C-1.46195312 7.39425781 -2.65046875 7.29242188 -3.875 7.1875 C-5.05835938 7.08308594 -6.24171875 6.97867187 -7.4609375 6.87109375 C-10.41898631 6.50846404 -10.41898631 6.50846404 -12.5 7.75 C-12.5 8.74 -12.5 9.73 -12.5 10.75 C-11.83613281 10.87117188 -11.17226563 10.99234375 -10.48828125 11.1171875 C-0.92017368 12.93303273 -0.92017368 12.93303273 2.5 14.75 C5.17134463 18.75701694 5.32653281 22.03876296 4.5 26.75 C1.97031526 30.03175318 0.42268669 31.44243777 -3.5 32.75 C-9.37299507 33.21983961 -14.12724705 31.97519596 -19.5 29.75 C-20.5 28.75 -20.5 28.75 -20.5625 25.6875 C-20.541875 24.718125 -20.52125 23.74875 -20.5 22.75 C-19.324375 22.9665625 -19.324375 22.9665625 -18.125 23.1875 C-13.59757251 23.89003185 -9.06072928 24.32637495 -4.5 24.75 C-3.84 23.43 -3.18 22.11 -2.5 20.75 C-3.37011719 20.58564453 -3.37011719 20.58564453 -4.2578125 20.41796875 C-9.99835657 19.25280881 -15.22977747 18.02022253 -19.5 13.75 C-20.18994819 9.14499693 -20.42080622 5.05182948 -17.6875 1.1875 C-12.24766667 -2.38724762 -5.9505883 -2.12521011 0 0 Z " fill="#010D32" transform="translate(433.5,405.25)"/>
<path d="M0 0 C1.98 0 3.96 0 6 0 C8.64 6.6 11.28 13.2 14 20 C15.60887394 17.58668908 16.65308404 15.63221894 17.7265625 12.98828125 C18.0359375 12.23095703 18.3453125 11.47363281 18.6640625 10.69335938 C18.98117187 9.90767578 19.29828125 9.12199219 19.625 8.3125 C19.94984375 7.51521484 20.2746875 6.71792969 20.609375 5.89648438 C21.40920701 3.93219104 22.20499631 1.96625244 23 0 C24.98 0 26.96 0 29 0 C28.70502813 7.94688927 26.05935638 14.56456618 22.96240234 21.79443359 C22.12279763 23.75514313 21.30029479 25.72235541 20.48046875 27.69140625 C14.46255811 42.00923483 14.46255811 42.00923483 11.0625 44.3125 C9 45 9 45 5 45 C5 42.69 5 40.38 5 38 C6.32 38 7.64 38 9 38 C9.93564804 27.43757324 6.61790987 19.84145094 1.6875 10.6875 C-0.25833413 6.95993824 -0.34677172 4.16126069 0 0 Z " fill="#010E34" transform="translate(382,405)"/>
<path d="M0 0 C1.65 0 3.3 0 5 0 C5 3.3 5 6.6 5 10 C6.98 10 8.96 10 11 10 C11 11.65 11 13.3 11 15 C9.35 15 7.7 15 6 15 C6 21.6 6 28.2 6 35 C8.64 35 11.28 35 14 35 C14 36.98 14 38.96 14 41 C9.67899104 43.22597431 6.69682975 43.13071827 2 42 C0.30737305 40.7956543 0.30737305 40.7956543 -1 39 C-1.34057617 36.45629883 -1.34057617 36.45629883 -1.29296875 33.45703125 C-1.2784668 31.84731445 -1.2784668 31.84731445 -1.26367188 30.20507812 C-1.23853516 29.08552734 -1.21339844 27.96597656 -1.1875 26.8125 C-1.16719727 25.11577148 -1.16719727 25.11577148 -1.14648438 23.38476562 C-1.11109958 20.58936683 -1.06172948 17.79492108 -1 15 C-1.99 15 -2.98 15 -4 15 C-4 13.35 -4 11.7 -4 10 C-2.68 10 -1.36 10 0 10 C0 6.7 0 3.4 0 0 Z " fill="#010D34" transform="translate(444,395)"/>
<path d="M0 0 C1.65 0 3.3 0 5 0 C5 3.3 5 6.6 5 10 C6.98 10 8.96 10 11 10 C11 11.65 11 13.3 11 15 C9.35 15 7.7 15 6 15 C6 21.6 6 28.2 6 35 C8.64 35 11.28 35 14 35 C14 36.98 14 38.96 14 41 C9.67899104 43.22597431 6.69682975 43.13071827 2 42 C0.30737305 40.7956543 0.30737305 40.7956543 -1 39 C-1.34057617 36.45629883 -1.34057617 36.45629883 -1.29296875 33.45703125 C-1.2784668 31.84731445 -1.2784668 31.84731445 -1.26367188 30.20507812 C-1.23853516 29.08552734 -1.21339844 27.96597656 -1.1875 26.8125 C-1.16719727 25.11577148 -1.16719727 25.11577148 -1.14648438 23.38476562 C-1.11109958 20.58936683 -1.06172948 17.79492108 -1 15 C-1.99 15 -2.98 15 -4 15 C-4 13.35 -4 11.7 -4 10 C-2.68 10 -1.36 10 0 10 C0 6.7 0 3.4 0 0 Z " fill="#010D34" transform="translate(185,395)"/>
<path d="M0 0 C2.31 0 4.62 0 7 0 C7 11.88 7 23.76 7 36 C8.65 36 10.3 36 12 36 C13 37 13 37 13.0625 40.0625 C13.041875 41.031875 13.02125 42.00125 13 43 C11.3973218 43.10824843 9.79254252 43.18570645 8.1875 43.25 C7.29417969 43.29640625 6.40085937 43.3428125 5.48046875 43.390625 C3 43 3 43 1.36328125 41.53320312 C-0.66871304 37.75742003 -0.37147694 34.29882745 -0.29296875 30.078125 C-0.28872391 29.21813904 -0.28447906 28.35815308 -0.28010559 27.47210693 C-0.26334116 24.7310833 -0.22569345 21.99080061 -0.1875 19.25 C-0.17245025 17.38933355 -0.15876235 15.52865555 -0.14648438 13.66796875 C-0.11344499 9.1116946 -0.06167833 4.55597284 0 0 Z " fill="#020D33" transform="translate(369,394)"/>
<path d="M0 0 C2.31 0 4.62 0 7 0 C7 11.88 7 23.76 7 36 C8.98 36.33 10.96 36.66 13 37 C13 38.98 13 40.96 13 43 C11.3973218 43.10824843 9.79254252 43.18570645 8.1875 43.25 C7.29417969 43.29640625 6.40085938 43.3428125 5.48046875 43.390625 C3 43 3 43 1.36328125 41.53320312 C-0.66871304 37.75742003 -0.37147694 34.29882745 -0.29296875 30.078125 C-0.28872391 29.21813904 -0.28447906 28.35815308 -0.28010559 27.47210693 C-0.26334116 24.7310833 -0.22569345 21.99080061 -0.1875 19.25 C-0.17245025 17.38933355 -0.15876235 15.52865555 -0.14648438 13.66796875 C-0.11344499 9.1116946 -0.06167833 4.55597284 0 0 Z " fill="#010D34" transform="translate(232,394)"/>
<path d="M0 0 C1.32 0 2.64 0 4 0 C4 3.3 4 6.6 4 10 C6.31 10 8.62 10 11 10 C11 11.65 11 13.3 11 15 C9.02 15 7.04 15 5 15 C5 21.6 5 28.2 5 35 C7.64 35 10.28 35 13 35 C13.04254356 36.99954746 13.04080783 39.00041636 13 41 C11.34233202 42.65766798 9.39653595 42.21049503 7.125 42.25 C6.24070312 42.27578125 5.35640625 42.3015625 4.4453125 42.328125 C2 42 2 42 0.36547852 40.82592773 C-1.52462778 38.29846395 -1.3426909 36.58952644 -1.29296875 33.45703125 C-1.2784668 31.84731445 -1.2784668 31.84731445 -1.26367188 30.20507812 C-1.23853516 29.08552734 -1.21339844 27.96597656 -1.1875 26.8125 C-1.16719727 25.11577148 -1.16719727 25.11577148 -1.14648438 23.38476562 C-1.11109958 20.58936683 -1.06172948 17.79492108 -1 15 C-1.99 15 -2.98 15 -4 15 C-4 13.35 -4 11.7 -4 10 C-2.68 10 -1.36 10 0 10 C0 6.7 0 3.4 0 0 Z " fill="#010D34" transform="translate(322,395)"/>
<path d="M0 0 C1.65 0 3.3 0 5 0 C5 10.23 5 20.46 5 31 C3.35 31 1.7 31 0 31 C0 20.77 0 10.54 0 0 Z " fill="#020E35" transform="translate(171,405)"/>
<path d="M0 0 C1.65 0 3.3 0 5 0 C5 10.23 5 20.46 5 31 C3.35 31 1.7 31 0 31 C0 20.77 0 10.54 0 0 Z " fill="#020E35" transform="translate(124,405)"/>
<path d="M0 0 C1.65 0 3.3 0 5 0 C5 2.31 5 4.62 5 7 C3.35 7 1.7 7 0 7 C0 4.69 0 2.38 0 0 Z " fill="#010E36" transform="translate(171,394)"/>
<path d="M0 0 C1.65 0 3.3 0 5 0 C5 2.31 5 4.62 5 7 C3.35 7 1.7 7 0 7 C0 4.69 0 2.38 0 0 Z " fill="#010E36" transform="translate(124,394)"/>
</svg>
